<svg width="298" height="393" viewBox="0 0 298 393" fill="none" xmlns="http://www.w3.org/2000/svg">
<path opacity="0.4" d="M273.244 211.345L217.237 246.664C214.372 248.471 211.146 249.627 207.786 250.052C204.426 250.477 201.014 250.16 197.79 249.124L136.397 229.39C133.153 228.347 129.718 228.033 126.338 228.47C122.958 228.907 119.716 230.084 116.843 231.918L71.8962 260.609C70.5173 261.481 68.9542 262.019 67.3311 262.181C65.708 262.342 64.0695 262.124 62.5456 261.542C61.0217 260.96 59.6543 260.031 58.552 258.829C57.4497 257.627 56.6428 256.184 56.1953 254.615L17.4025 118.619C16.7806 116.438 16.8816 114.115 17.6903 111.996C18.4991 109.878 19.9721 108.078 21.8891 106.867L78.4939 71.0923C81.6321 69.1089 85.1674 67.8385 88.8503 67.3708C92.5331 66.9031 96.2738 67.2494 99.8082 68.3853L159.242 87.4901C162.789 88.6302 166.544 88.975 170.239 88.4999C173.935 88.0248 177.48 86.7415 180.624 84.7412L223.186 57.6554C224.565 56.7782 226.129 56.2349 227.755 56.0689C229.381 55.9028 231.023 56.1186 232.55 56.699C234.078 57.2793 235.449 58.2083 236.554 59.4119C237.659 60.6156 238.468 62.0606 238.916 63.6319L277.703 199.61C278.323 201.785 278.225 204.102 277.421 206.217C276.618 208.332 275.153 210.13 273.244 211.345Z" fill="#CCCDCF"/>
<path d="M275.431 196.912L227.605 227.346C224.462 229.347 220.916 230.63 217.221 231.105C213.525 231.58 209.771 231.235 206.223 230.095L146.786 210.99C143.251 209.855 139.511 209.508 135.828 209.976C132.145 210.443 128.61 211.714 125.471 213.697L74.0815 246.176C72.7025 247.048 71.1395 247.586 69.5164 247.748C67.8933 247.909 66.2547 247.691 64.7308 247.109C63.207 246.527 61.8396 245.598 60.7373 244.396C59.635 243.194 58.8281 241.751 58.3805 240.182L19.5882 104.186C18.9661 102.005 19.067 99.6819 19.8757 97.5633C20.6844 95.4448 22.1574 93.645 24.0743 92.4335L80.6763 56.6577C83.8146 54.6744 87.3499 53.4041 91.0328 52.9364C94.7156 52.4688 98.4562 52.8151 101.991 53.9511L161.428 73.0562C164.975 74.1964 168.73 74.5412 172.426 74.066C176.121 73.5908 179.667 72.3074 182.81 70.3069L225.372 43.2216C226.751 42.3443 228.316 41.8011 229.941 41.635C231.567 41.469 233.209 41.6847 234.736 42.2651C236.264 42.8455 237.635 43.7745 238.74 44.9781C239.845 46.1817 240.654 47.6267 241.102 49.1981L279.889 185.175C280.51 187.35 280.411 189.668 279.608 191.783C278.805 193.898 277.34 195.697 275.431 196.912Z" fill="white"/>
<path d="M88.2703 185.566L88.9216 187.452L90.8093 186.806L130.963 173.058L138.615 194.65C138.05 194.946 137.352 195.314 136.555 195.732C134.399 196.865 131.524 198.379 128.656 199.901C125.789 201.422 122.921 202.954 120.781 204.124C119.713 204.707 118.813 205.208 118.181 205.574C117.871 205.754 117.599 205.916 117.398 206.047C117.308 206.105 117.178 206.192 117.057 206.289C117.046 206.298 117.03 206.312 117.008 206.331L68.6208 236.913L45.3083 155.189L75.699 149.14L88.2703 185.566Z" fill="#9AB0EA" stroke="#4A6CC5" stroke-width="4"/>
<path d="M275.431 196.912L227.605 227.346C224.462 229.347 220.916 230.63 217.221 231.105C213.525 231.58 209.771 231.235 206.223 230.095L146.786 210.99C143.251 209.855 139.511 209.508 135.828 209.976C132.145 210.443 128.61 211.714 125.471 213.697L74.0815 246.176C72.7025 247.048 71.1395 247.586 69.5164 247.748C67.8933 247.909 66.2547 247.691 64.7308 247.109C63.207 246.527 61.8396 245.598 60.7373 244.396C59.635 243.194 58.8281 241.751 58.3805 240.182L19.5882 104.186C18.9661 102.005 19.067 99.6819 19.8757 97.5633C20.6844 95.4448 22.1574 93.645 24.0743 92.4335L80.6763 56.6577C83.8146 54.6744 87.3499 53.4041 91.0328 52.9364C94.7156 52.4688 98.4562 52.8151 101.991 53.9511L161.428 73.0562C164.975 74.1964 168.73 74.5412 172.426 74.066C176.121 73.5908 179.667 72.3074 182.81 70.3069L225.373 43.2216C226.751 42.3443 228.316 41.8011 229.941 41.635C231.567 41.469 233.209 41.6847 234.736 42.2651C236.264 42.8455 237.635 43.7745 238.74 44.9781C239.845 46.1817 240.654 47.6267 241.102 49.1981L279.889 185.175C280.51 187.35 280.411 189.668 279.608 191.783C278.805 193.898 277.34 195.697 275.431 196.912Z" stroke="#0D0D0D" stroke-width="3" stroke-miterlimit="10"/>
<path d="M96.9683 180.018C96.9683 180.018 97.6972 179.828 98.9256 179.469" stroke="#0D0D0D" stroke-width="4" stroke-linecap="round" stroke-linejoin="round"/>
<path d="M104.839 177.576C113.476 174.571 126.151 169.057 126.303 162.536C126.506 153.872 84.5156 110.525 107.09 107.905C182.458 99.1572 148.689 161.841 183.062 160.441C197.583 159.849 170.729 139.883 212.219 125.452C218.37 123.312 215.314 107.67 213.251 99.4916" stroke="#0D0D0D" stroke-width="3" stroke-linecap="round" stroke-linejoin="round" stroke-dasharray="10.18 15.26"/>
<path d="M212.453 96.4901C212.109 95.2629 211.883 94.5376 211.883 94.5376" stroke="#0D0D0D" stroke-width="4" stroke-linecap="round" stroke-linejoin="round"/>
<path d="M94.3429 192.444C100.621 192.444 105.71 187.355 105.71 181.077C105.71 174.799 100.621 169.709 94.3429 169.709C88.0649 169.709 82.9756 174.799 82.9756 181.077C82.9756 187.355 88.0649 192.444 94.3429 192.444Z" fill="#4A6CC5"/>
<path d="M94.3431 169.709C92.6004 169.708 90.881 170.109 89.318 170.879C87.755 171.65 86.3904 172.77 85.3301 174.153C87.5648 172.634 90.2675 171.961 92.9536 172.254C95.6396 172.548 98.1332 173.789 99.9873 175.754C101.841 177.72 102.934 180.282 103.07 182.98C103.207 185.679 102.377 188.338 100.73 190.48C102.741 189.114 104.261 187.139 105.067 184.845C105.873 182.552 105.923 180.06 105.208 177.736C104.494 175.412 103.053 173.379 101.097 171.934C99.1421 170.489 96.7751 169.71 94.3439 169.709H94.3431Z" fill="#4A6CC5"/>
<path d="M94.3429 192.444C100.621 192.444 105.71 187.355 105.71 181.077C105.71 174.799 100.621 169.709 94.3429 169.709C88.0649 169.709 82.9756 174.799 82.9756 181.077C82.9756 187.355 88.0649 192.444 94.3429 192.444Z" stroke="#0D0D0D" stroke-width="3" stroke-miterlimit="10"/>
<path d="M99.5231 79.6559L132.126 85.8358L124.639 72.6763L97.6548 63.2618C96.0941 62.7174 94.4414 62.4857 92.7912 62.5801C91.1409 62.6745 89.5255 63.093 88.037 63.8118L28.7447 99.8276C28.4263 100.031 28.1816 100.331 28.0469 100.683C27.9122 101.036 27.8946 101.423 27.9966 101.787L37.5588 135.308L63.6277 128.863L58.8401 109.659L99.5231 79.6559Z" fill="#9AB0EA" stroke="#4A6CC5" stroke-width="4" stroke-linecap="round" stroke-linejoin="round"/>
<path d="M151.191 162.671L169.796 167.356L178.791 187.971L158.748 184.685L151.191 162.671Z" fill="#9AB0EA" stroke="#4A6CC5" stroke-width="4" stroke-linecap="round" stroke-linejoin="round"/>
<path d="M212.228 100.917C197.114 100.917 184.862 96.534 184.862 91.1269C184.862 85.7198 197.114 81.3362 212.228 81.3362C227.342 81.3362 239.594 85.7198 239.594 91.1269C239.594 96.534 227.341 100.917 212.228 100.917Z" fill="#F2F2F3"/>
<path d="M220.815 156.39L254.954 141.529L268.44 182.616L213.16 214.03L203.028 185.435L224.643 173.277L220.815 156.39Z" fill="#9AB0EA" stroke="#4A6CC5" stroke-width="4" stroke-linecap="round" stroke-linejoin="round"/>
<path d="M252.519 43.3895C252.519 19.8788 233.437 0.946484 210.314 2.04555C189.609 3.02991 171.959 20.6679 171.959 41.9585C171.959 72.7572 212.229 96.5051 212.229 96.5051C212.229 96.5051 252.519 72.7572 252.519 43.3895Z" fill="#4A6CC5"/>
<path d="M226.936 84.5874C223.761 87.0646 219.845 88.4036 215.818 88.3897C211.791 88.3759 207.885 87.0099 204.727 84.511C192.809 75.0741 175.571 57.9401 175.571 37.7904C175.601 29.2351 178.431 20.9247 183.629 14.1292C176.481 21.3475 171.959 31.1846 171.959 41.9585C171.959 72.7572 212.228 96.5051 212.228 96.5051C212.228 96.5051 228.651 86.8242 240.527 72.1808C236.335 76.6725 231.79 80.8213 226.936 84.5874Z" fill="#4A6CC5"/>
<path d="M210.314 2.04555C203.054 2.41958 196.035 4.77185 190.016 8.84781C194.756 6.56215 199.906 5.25024 205.162 4.98968C228.285 3.89143 247.368 22.8225 247.368 46.3337C247.368 69.3604 222.599 88.9313 211.902 96.3095C212.111 96.4372 212.227 96.5064 212.227 96.5064C212.227 96.5064 252.519 72.7572 252.519 43.3895C252.52 19.8788 233.437 0.946484 210.314 2.04555Z" fill="#4A6CC5"/>
<path d="M212.228 59.2223C208.949 59.2224 205.744 58.2502 203.017 56.4286C200.291 54.607 198.166 52.018 196.911 48.9887C195.657 45.9595 195.328 42.6262 195.968 39.4104C196.608 36.1946 198.186 33.2406 200.505 30.9221C202.823 28.6036 205.777 27.0247 208.993 26.385C212.209 25.7453 215.542 26.0736 218.571 27.3283C221.601 28.583 224.19 30.7079 226.011 33.4341C227.833 36.1603 228.805 39.3655 228.805 42.6444C228.805 47.041 227.059 51.2576 223.95 54.3666C220.841 57.4755 216.624 59.2222 212.228 59.2223Z" fill="white"/>
<path d="M212.228 59.2223C208.949 59.2224 205.744 58.2502 203.017 56.4286C200.291 54.607 198.166 52.018 196.911 48.9887C195.657 45.9595 195.328 42.6262 195.968 39.4104C196.608 36.1946 198.186 33.2406 200.505 30.9221C202.823 28.6036 205.777 27.0247 208.993 26.385C212.209 25.7453 215.542 26.0736 218.571 27.3283C221.601 28.583 224.19 30.7079 226.011 33.4341C227.833 36.1603 228.805 39.3655 228.805 42.6444C228.805 47.041 227.059 51.2576 223.95 54.3666C220.841 57.4755 216.624 59.2222 212.228 59.2223Z" stroke="#0D0D0D" stroke-width="3" stroke-miterlimit="10"/>
<path d="M252.519 43.3895C252.519 19.8788 233.437 0.946484 210.314 2.04555C189.609 3.02991 171.959 20.6679 171.959 41.9585C171.959 72.7572 212.229 96.5052 212.229 96.5052C212.229 96.5052 252.519 72.7572 252.519 43.3895Z" stroke="#0D0D0D" stroke-width="3" stroke-linecap="round" stroke-linejoin="round"/>
<path d="M68.846 324.372C67.8727 324.372 66.9927 324.206 66.206 323.872C65.4327 323.539 64.8193 323.059 64.366 322.432C63.9127 321.806 63.6793 321.066 63.666 320.212H66.666C66.706 320.786 66.906 321.239 67.266 321.572C67.6393 321.906 68.146 322.072 68.786 322.072C69.4393 322.072 69.9527 321.919 70.326 321.612C70.6993 321.292 70.886 320.879 70.886 320.372C70.886 319.959 70.7593 319.619 70.506 319.352C70.2527 319.086 69.9327 318.879 69.546 318.732C69.1727 318.572 68.6527 318.399 67.986 318.212C67.0793 317.946 66.3393 317.686 65.766 317.432C65.206 317.166 64.7193 316.772 64.306 316.252C63.906 315.719 63.706 315.012 63.706 314.132C63.706 313.306 63.9127 312.586 64.326 311.972C64.7393 311.359 65.3193 310.892 66.066 310.572C66.8127 310.239 67.666 310.072 68.626 310.072C70.066 310.072 71.2327 310.426 72.126 311.132C73.0327 311.826 73.5327 312.799 73.626 314.052H70.546C70.5193 313.572 70.3127 313.179 69.926 312.872C69.5527 312.552 69.0527 312.392 68.426 312.392C67.8793 312.392 67.4393 312.532 67.106 312.812C66.786 313.092 66.626 313.499 66.626 314.032C66.626 314.406 66.746 314.719 66.986 314.972C67.2393 315.212 67.546 315.412 67.906 315.572C68.2793 315.719 68.7993 315.892 69.466 316.092C70.3727 316.359 71.1127 316.626 71.686 316.892C72.2593 317.159 72.7527 317.559 73.166 318.092C73.5793 318.626 73.786 319.326 73.786 320.192C73.786 320.939 73.5927 321.632 73.206 322.272C72.8193 322.912 72.2527 323.426 71.506 323.812C70.7593 324.186 69.8727 324.372 68.846 324.372ZM86.5135 318.452C86.5135 318.852 86.4868 319.212 86.4335 319.532H78.3335C78.4002 320.332 78.6802 320.959 79.1735 321.412C79.6668 321.866 80.2735 322.092 80.9935 322.092C82.0335 322.092 82.7735 321.646 83.2135 320.752H86.2335C85.9135 321.819 85.3002 322.699 84.3935 323.392C83.4868 324.072 82.3735 324.412 81.0535 324.412C79.9868 324.412 79.0268 324.179 78.1735 323.712C77.3335 323.232 76.6735 322.559 76.1935 321.692C75.7268 320.826 75.4935 319.826 75.4935 318.692C75.4935 317.546 75.7268 316.539 76.1935 315.672C76.6602 314.806 77.3135 314.139 78.1535 313.672C78.9935 313.206 79.9602 312.972 81.0535 312.972C82.1068 312.972 83.0468 313.199 83.8735 313.652C84.7135 314.106 85.3602 314.752 85.8135 315.592C86.2802 316.419 86.5135 317.372 86.5135 318.452ZM83.6135 317.652C83.6002 316.932 83.3402 316.359 82.8335 315.932C82.3268 315.492 81.7068 315.272 80.9735 315.272C80.2802 315.272 79.6935 315.486 79.2135 315.912C78.7468 316.326 78.4602 316.906 78.3535 317.652H83.6135ZM91.8172 315.452V320.812C91.8172 321.186 91.9039 321.459 92.0772 321.632C92.2639 321.792 92.5706 321.872 92.9972 321.872H94.2972V324.232H92.5372C90.1772 324.232 88.9972 323.086 88.9972 320.792V315.452H87.6772V313.152H88.9972V310.412H91.8172V313.152H94.2972V315.452H91.8172ZM111.677 313.152L104.817 329.472H101.837L104.237 323.952L99.7968 313.152H102.937L105.797 320.892L108.697 313.152H111.677ZM118.106 324.412C117.039 324.412 116.079 324.179 115.226 323.712C114.373 323.232 113.699 322.559 113.206 321.692C112.726 320.826 112.486 319.826 112.486 318.692C112.486 317.559 112.733 316.559 113.226 315.692C113.733 314.826 114.419 314.159 115.286 313.692C116.153 313.212 117.119 312.972 118.186 312.972C119.253 312.972 120.219 313.212 121.086 313.692C121.953 314.159 122.633 314.826 123.126 315.692C123.633 316.559 123.886 317.559 123.886 318.692C123.886 319.826 123.626 320.826 123.106 321.692C122.599 322.559 121.906 323.232 121.026 323.712C120.159 324.179 119.186 324.412 118.106 324.412ZM118.106 321.972C118.613 321.972 119.086 321.852 119.526 321.612C119.979 321.359 120.339 320.986 120.606 320.492C120.873 319.999 121.006 319.399 121.006 318.692C121.006 317.639 120.726 316.832 120.166 316.272C119.619 315.699 118.946 315.412 118.146 315.412C117.346 315.412 116.673 315.699 116.126 316.272C115.593 316.832 115.326 317.639 115.326 318.692C115.326 319.746 115.586 320.559 116.106 321.132C116.639 321.692 117.306 321.972 118.106 321.972ZM136.4 313.152V324.232H133.58V322.832C133.22 323.312 132.747 323.692 132.16 323.972C131.587 324.239 130.96 324.372 130.28 324.372C129.413 324.372 128.647 324.192 127.98 323.832C127.313 323.459 126.787 322.919 126.4 322.212C126.027 321.492 125.84 320.639 125.84 319.652V313.152H128.64V319.252C128.64 320.132 128.86 320.812 129.3 321.292C129.74 321.759 130.34 321.992 131.1 321.992C131.873 321.992 132.48 321.759 132.92 321.292C133.36 320.812 133.58 320.132 133.58 319.252V313.152H136.4ZM141.963 314.872C142.323 314.286 142.789 313.826 143.363 313.492C143.949 313.159 144.616 312.992 145.363 312.992V315.932H144.623C143.743 315.932 143.076 316.139 142.623 316.552C142.183 316.966 141.963 317.686 141.963 318.712V324.232H139.163V313.152H141.963V314.872ZM154.814 309.432V324.232H152.014V309.432H154.814ZM162.501 324.412C161.434 324.412 160.474 324.179 159.621 323.712C158.767 323.232 158.094 322.559 157.601 321.692C157.121 320.826 156.881 319.826 156.881 318.692C156.881 317.559 157.127 316.559 157.621 315.692C158.127 314.826 158.814 314.159 159.681 313.692C160.547 313.212 161.514 312.972 162.581 312.972C163.647 312.972 164.614 313.212 165.481 313.692C166.347 314.159 167.027 314.826 167.521 315.692C168.027 316.559 168.281 317.559 168.281 318.692C168.281 319.826 168.021 320.826 167.501 321.692C166.994 322.559 166.301 323.232 165.421 323.712C164.554 324.179 163.581 324.412 162.501 324.412ZM162.501 321.972C163.007 321.972 163.481 321.852 163.921 321.612C164.374 321.359 164.734 320.986 165.001 320.492C165.267 319.999 165.401 319.399 165.401 318.692C165.401 317.639 165.121 316.832 164.561 316.272C164.014 315.699 163.341 315.412 162.541 315.412C161.741 315.412 161.067 315.699 160.521 316.272C159.987 316.832 159.721 317.639 159.721 318.692C159.721 319.746 159.981 320.559 160.501 321.132C161.034 321.692 161.701 321.972 162.501 321.972ZM169.615 318.692C169.615 317.546 169.848 316.546 170.315 315.692C170.781 314.826 171.428 314.159 172.255 313.692C173.081 313.212 174.028 312.972 175.095 312.972C176.468 312.972 177.601 313.319 178.495 314.012C179.401 314.692 180.008 315.652 180.315 316.892H177.295C177.135 316.412 176.861 316.039 176.475 315.772C176.101 315.492 175.635 315.352 175.075 315.352C174.275 315.352 173.641 315.646 173.175 316.232C172.708 316.806 172.475 317.626 172.475 318.692C172.475 319.746 172.708 320.566 173.175 321.152C173.641 321.726 174.275 322.012 175.075 322.012C176.208 322.012 176.948 321.506 177.295 320.492H180.315C180.008 321.692 179.401 322.646 178.495 323.352C177.588 324.059 176.455 324.412 175.095 324.412C174.028 324.412 173.081 324.179 172.255 323.712C171.428 323.232 170.781 322.566 170.315 321.712C169.848 320.846 169.615 319.839 169.615 318.692ZM181.646 318.652C181.646 317.532 181.866 316.539 182.306 315.672C182.759 314.806 183.366 314.139 184.126 313.672C184.899 313.206 185.759 312.972 186.706 312.972C187.533 312.972 188.253 313.139 188.866 313.472C189.493 313.806 189.993 314.226 190.366 314.732V313.152H193.186V324.232H190.366V322.612C190.006 323.132 189.506 323.566 188.866 323.912C188.239 324.246 187.513 324.412 186.686 324.412C185.753 324.412 184.899 324.172 184.126 323.692C183.366 323.212 182.759 322.539 182.306 321.672C181.866 320.792 181.646 319.786 181.646 318.652ZM190.366 318.692C190.366 318.012 190.233 317.432 189.966 316.952C189.699 316.459 189.339 316.086 188.886 315.832C188.433 315.566 187.946 315.432 187.426 315.432C186.906 315.432 186.426 315.559 185.986 315.812C185.546 316.066 185.186 316.439 184.906 316.932C184.639 317.412 184.506 317.986 184.506 318.652C184.506 319.319 184.639 319.906 184.906 320.412C185.186 320.906 185.546 321.286 185.986 321.552C186.439 321.819 186.919 321.952 187.426 321.952C187.946 321.952 188.433 321.826 188.886 321.572C189.339 321.306 189.699 320.932 189.966 320.452C190.233 319.959 190.366 319.372 190.366 318.692ZM199.181 315.452V320.812C199.181 321.186 199.267 321.459 199.441 321.632C199.627 321.792 199.934 321.872 200.361 321.872H201.661V324.232H199.901C197.541 324.232 196.361 323.086 196.361 320.792V315.452H195.041V313.152H196.361V310.412H199.181V313.152H201.661V315.452H199.181ZM205.094 311.832C204.601 311.832 204.188 311.679 203.854 311.372C203.534 311.052 203.374 310.659 203.374 310.192C203.374 309.726 203.534 309.339 203.854 309.032C204.188 308.712 204.601 308.552 205.094 308.552C205.588 308.552 205.994 308.712 206.314 309.032C206.648 309.339 206.814 309.726 206.814 310.192C206.814 310.659 206.648 311.052 206.314 311.372C205.994 311.679 205.588 311.832 205.094 311.832ZM206.474 313.152V324.232H203.674V313.152H206.474ZM214.161 324.412C213.094 324.412 212.134 324.179 211.281 323.712C210.428 323.232 209.754 322.559 209.261 321.692C208.781 320.826 208.541 319.826 208.541 318.692C208.541 317.559 208.788 316.559 209.281 315.692C209.788 314.826 210.474 314.159 211.341 313.692C212.208 313.212 213.174 312.972 214.241 312.972C215.308 312.972 216.274 313.212 217.141 313.692C218.008 314.159 218.688 314.826 219.181 315.692C219.688 316.559 219.941 317.559 219.941 318.692C219.941 319.826 219.681 320.826 219.161 321.692C218.654 322.559 217.961 323.232 217.081 323.712C216.214 324.179 215.241 324.412 214.161 324.412ZM214.161 321.972C214.668 321.972 215.141 321.852 215.581 321.612C216.034 321.359 216.394 320.986 216.661 320.492C216.928 319.999 217.061 319.399 217.061 318.692C217.061 317.639 216.781 316.832 216.221 316.272C215.674 315.699 215.001 315.412 214.201 315.412C213.401 315.412 212.728 315.699 212.181 316.272C211.648 316.832 211.381 317.639 211.381 318.692C211.381 319.746 211.641 320.559 212.161 321.132C212.694 321.692 213.361 321.972 214.161 321.972ZM228.135 312.992C229.455 312.992 230.521 313.412 231.335 314.252C232.148 315.079 232.555 316.239 232.555 317.732V324.232H229.755V318.112C229.755 317.232 229.535 316.559 229.095 316.092C228.655 315.612 228.055 315.372 227.295 315.372C226.521 315.372 225.908 315.612 225.455 316.092C225.015 316.559 224.795 317.232 224.795 318.112V324.232H221.995V313.152H224.795V314.532C225.168 314.052 225.641 313.679 226.215 313.412C226.801 313.132 227.441 312.992 228.135 312.992Z" fill="#0D0D0D"/>
<path d="M7.77325 348.08V349.264H4.73325V359.232H3.27725V349.264H0.221246V348.08H7.77325ZM13.9175 350.304C14.5788 350.304 15.1762 350.448 15.7095 350.736C16.2428 351.014 16.6588 351.435 16.9575 352C17.2668 352.566 17.4215 353.254 17.4215 354.064V359.232H15.9815V354.272C15.9815 353.398 15.7628 352.731 15.3255 352.272C14.8882 351.803 14.2908 351.568 13.5335 351.568C12.7655 351.568 12.1522 351.808 11.6935 352.288C11.2455 352.768 11.0215 353.467 11.0215 354.384V359.232H9.5655V347.392H11.0215V351.712C11.3095 351.264 11.7042 350.918 12.2055 350.672C12.7175 350.427 13.2882 350.304 13.9175 350.304ZM20.5519 349.04C20.2745 349.04 20.0399 348.944 19.8479 348.752C19.6559 348.56 19.5599 348.326 19.5599 348.048C19.5599 347.771 19.6559 347.536 19.8479 347.344C20.0399 347.152 20.2745 347.056 20.5519 347.056C20.8185 347.056 21.0425 347.152 21.2239 347.344C21.4159 347.536 21.5119 347.771 21.5119 348.048C21.5119 348.326 21.4159 348.56 21.2239 348.752C21.0425 348.944 20.8185 349.04 20.5519 349.04ZM21.2559 350.464V359.232H19.7999V350.464H21.2559ZM26.8414 359.376C26.1694 359.376 25.5667 359.264 25.0334 359.04C24.5 358.806 24.0787 358.486 23.7694 358.08C23.46 357.664 23.2894 357.19 23.2574 356.656H24.7614C24.804 357.094 25.0067 357.451 25.3694 357.728C25.7427 358.006 26.228 358.144 26.8254 358.144C27.38 358.144 27.8174 358.022 28.1374 357.776C28.4574 357.531 28.6174 357.222 28.6174 356.848C28.6174 356.464 28.4467 356.182 28.1054 356C27.764 355.808 27.236 355.622 26.5214 355.44C25.8707 355.27 25.3374 355.099 24.9214 354.928C24.516 354.747 24.164 354.486 23.8654 354.144C23.5774 353.792 23.4334 353.334 23.4334 352.768C23.4334 352.32 23.5667 351.91 23.8334 351.536C24.1 351.163 24.4787 350.87 24.9694 350.656C25.46 350.432 26.02 350.32 26.6494 350.32C27.62 350.32 28.404 350.566 29.0014 351.056C29.5987 351.547 29.9187 352.219 29.9614 353.072H28.5054C28.4734 352.614 28.2867 352.246 27.9454 351.968C27.6147 351.691 27.1667 351.552 26.6014 351.552C26.0787 351.552 25.6627 351.664 25.3534 351.888C25.044 352.112 24.8894 352.406 24.8894 352.768C24.8894 353.056 24.98 353.296 25.1614 353.488C25.3534 353.67 25.588 353.819 25.8654 353.936C26.1534 354.043 26.548 354.166 27.0494 354.304C27.6787 354.475 28.1907 354.646 28.5854 354.816C28.98 354.976 29.316 355.222 29.5934 355.552C29.8814 355.883 30.0307 356.315 30.0414 356.848C30.0414 357.328 29.908 357.76 29.6414 358.144C29.3747 358.528 28.996 358.832 28.5054 359.056C28.0254 359.27 27.4707 359.376 26.8414 359.376ZM37.8184 347.392V359.232H36.3624V347.392H37.8184ZM48.2999 354.512C48.2999 354.79 48.2839 355.083 48.2519 355.392H41.2439C41.2972 356.256 41.5905 356.934 42.1239 357.424C42.6679 357.904 43.3239 358.144 44.0919 358.144C44.7212 358.144 45.2439 358 45.6599 357.712C46.0865 357.414 46.3852 357.019 46.5559 356.528H48.1239C47.8892 357.371 47.4199 358.059 46.7159 358.592C46.0119 359.115 45.1372 359.376 44.0919 359.376C43.2599 359.376 42.5132 359.19 41.8519 358.816C41.2012 358.443 40.6892 357.915 40.3159 357.232C39.9425 356.539 39.7559 355.739 39.7559 354.832C39.7559 353.926 39.9372 353.131 40.2999 352.448C40.6625 351.766 41.1692 351.243 41.8199 350.88C42.4812 350.507 43.2385 350.32 44.0919 350.32C44.9239 350.32 45.6599 350.502 46.2999 350.864C46.9399 351.227 47.4305 351.728 47.7719 352.368C48.1239 352.998 48.2999 353.712 48.2999 354.512ZM46.7959 354.208C46.7959 353.654 46.6732 353.179 46.4279 352.784C46.1825 352.379 45.8465 352.075 45.4199 351.872C45.0039 351.659 44.5399 351.552 44.0279 351.552C43.2919 351.552 42.6625 351.787 42.1399 352.256C41.6279 352.726 41.3345 353.376 41.2599 354.208H46.7959ZM51.9977 351.664V356.832C51.9977 357.259 52.0884 357.563 52.2697 357.744C52.4511 357.915 52.7657 358 53.2137 358H54.2857V359.232H52.9737C52.1631 359.232 51.5551 359.046 51.1497 358.672C50.7444 358.299 50.5417 357.686 50.5417 356.832V351.664H49.4057V350.464H50.5417V348.256H51.9977V350.464H54.2857V351.664H51.9977ZM68.0915 350.464V359.232H66.6355V357.936C66.3582 358.384 65.9688 358.736 65.4675 358.992C64.9768 359.238 64.4328 359.36 63.8355 359.36C63.1528 359.36 62.5395 359.222 61.9955 358.944C61.4515 358.656 61.0195 358.23 60.6995 357.664C60.3902 357.099 60.2355 356.411 60.2355 355.6V350.464H61.6755V355.408C61.6755 356.272 61.8942 356.939 62.3315 357.408C62.7688 357.867 63.3662 358.096 64.1235 358.096C64.9022 358.096 65.5155 357.856 65.9635 357.376C66.4115 356.896 66.6355 356.198 66.6355 355.28V350.464H68.0915ZM73.6539 359.376C72.9819 359.376 72.3792 359.264 71.8459 359.04C71.3125 358.806 70.8912 358.486 70.5819 358.08C70.2725 357.664 70.1019 357.19 70.0699 356.656H71.5739C71.6165 357.094 71.8192 357.451 72.1819 357.728C72.5552 358.006 73.0405 358.144 73.6379 358.144C74.1925 358.144 74.6299 358.022 74.9499 357.776C75.2699 357.531 75.4299 357.222 75.4299 356.848C75.4299 356.464 75.2592 356.182 74.9179 356C74.5765 355.808 74.0485 355.622 73.3339 355.44C72.6832 355.27 72.1499 355.099 71.7339 354.928C71.3285 354.747 70.9765 354.486 70.6779 354.144C70.3899 353.792 70.2459 353.334 70.2459 352.768C70.2459 352.32 70.3792 351.91 70.6459 351.536C70.9125 351.163 71.2912 350.87 71.7819 350.656C72.2725 350.432 72.8325 350.32 73.4619 350.32C74.4325 350.32 75.2165 350.566 75.8139 351.056C76.4112 351.547 76.7312 352.219 76.7739 353.072H75.3179C75.2859 352.614 75.0992 352.246 74.7579 351.968C74.4272 351.691 73.9792 351.552 73.4139 351.552C72.8912 351.552 72.4752 351.664 72.1659 351.888C71.8565 352.112 71.7019 352.406 71.7019 352.768C71.7019 353.056 71.7925 353.296 71.9739 353.488C72.1659 353.67 72.4005 353.819 72.6779 353.936C72.9659 354.043 73.3605 354.166 73.8619 354.304C74.4912 354.475 75.0032 354.646 75.3979 354.816C75.7925 354.976 76.1285 355.222 76.4059 355.552C76.6939 355.883 76.8432 356.315 76.8539 356.848C76.8539 357.328 76.7205 357.76 76.4539 358.144C76.1872 358.528 75.8085 358.832 75.3179 359.056C74.8379 359.27 74.2832 359.376 73.6539 359.376ZM88.0709 359.232L84.6309 355.36V359.232H83.1749V347.392H84.6309V354.352L88.0069 350.464H90.0389L85.9109 354.832L90.0549 359.232H88.0709ZM95.6812 350.304C96.7479 350.304 97.6119 350.63 98.2732 351.28C98.9346 351.92 99.2652 352.848 99.2652 354.064V359.232H97.8252V354.272C97.8252 353.398 97.6066 352.731 97.1692 352.272C96.7319 351.803 96.1346 351.568 95.3772 351.568C94.6092 351.568 93.9959 351.808 93.5372 352.288C93.0892 352.768 92.8652 353.467 92.8652 354.384V359.232H91.4092V350.464H92.8652V351.712C93.1532 351.264 93.5426 350.918 94.0332 350.672C94.5346 350.427 95.0839 350.304 95.6812 350.304ZM105.468 359.376C104.646 359.376 103.9 359.19 103.228 358.816C102.566 358.443 102.044 357.915 101.66 357.232C101.286 356.539 101.1 355.739 101.1 354.832C101.1 353.936 101.292 353.147 101.676 352.464C102.07 351.771 102.604 351.243 103.276 350.88C103.948 350.507 104.7 350.32 105.532 350.32C106.364 350.32 107.116 350.507 107.788 350.88C108.46 351.243 108.988 351.766 109.372 352.448C109.766 353.131 109.964 353.926 109.964 354.832C109.964 355.739 109.761 356.539 109.356 357.232C108.961 357.915 108.422 358.443 107.74 358.816C107.057 359.19 106.3 359.376 105.468 359.376ZM105.468 358.096C105.99 358.096 106.481 357.974 106.94 357.728C107.398 357.483 107.766 357.115 108.044 356.624C108.332 356.134 108.476 355.536 108.476 354.832C108.476 354.128 108.337 353.531 108.06 353.04C107.782 352.55 107.42 352.187 106.972 351.952C106.524 351.707 106.038 351.584 105.516 351.584C104.982 351.584 104.492 351.707 104.044 351.952C103.606 352.187 103.254 352.55 102.988 353.04C102.721 353.531 102.588 354.128 102.588 354.832C102.588 355.547 102.716 356.15 102.972 356.64C103.238 357.131 103.59 357.499 104.028 357.744C104.465 357.979 104.945 358.096 105.468 358.096ZM123.558 350.464L120.822 359.232H119.318L117.206 352.272L115.094 359.232H113.59L110.838 350.464H112.326L114.342 357.824L116.518 350.464H118.006L120.134 357.84L122.118 350.464H123.558ZM136.821 350.464L131.541 363.36H130.037L131.765 359.136L128.229 350.464H129.845L132.597 357.568L135.317 350.464H136.821ZM142.108 359.376C141.287 359.376 140.54 359.19 139.868 358.816C139.207 358.443 138.684 357.915 138.3 357.232C137.927 356.539 137.74 355.739 137.74 354.832C137.74 353.936 137.932 353.147 138.316 352.464C138.711 351.771 139.244 351.243 139.916 350.88C140.588 350.507 141.34 350.32 142.172 350.32C143.004 350.32 143.756 350.507 144.428 350.88C145.1 351.243 145.628 351.766 146.012 352.448C146.407 353.131 146.604 353.926 146.604 354.832C146.604 355.739 146.402 356.539 145.996 357.232C145.602 357.915 145.063 358.443 144.38 358.816C143.698 359.19 142.94 359.376 142.108 359.376ZM142.108 358.096C142.631 358.096 143.122 357.974 143.58 357.728C144.039 357.483 144.407 357.115 144.684 356.624C144.972 356.134 145.116 355.536 145.116 354.832C145.116 354.128 144.978 353.531 144.7 353.04C144.423 352.55 144.06 352.187 143.612 351.952C143.164 351.707 142.679 351.584 142.156 351.584C141.623 351.584 141.132 351.707 140.684 351.952C140.247 352.187 139.895 352.55 139.628 353.04C139.362 353.531 139.228 354.128 139.228 354.832C139.228 355.547 139.356 356.15 139.612 356.64C139.879 357.131 140.231 357.499 140.668 357.744C141.106 357.979 141.586 358.096 142.108 358.096ZM156.295 350.464V359.232H154.839V357.936C154.561 358.384 154.172 358.736 153.671 358.992C153.18 359.238 152.636 359.36 152.039 359.36C151.356 359.36 150.743 359.222 150.199 358.944C149.655 358.656 149.223 358.23 148.903 357.664C148.593 357.099 148.439 356.411 148.439 355.6V350.464H149.879V355.408C149.879 356.272 150.097 356.939 150.535 357.408C150.972 357.867 151.569 358.096 152.327 358.096C153.105 358.096 153.719 357.856 154.167 357.376C154.615 356.896 154.839 356.198 154.839 355.28V350.464H156.295ZM160.209 351.888C160.465 351.387 160.828 350.998 161.297 350.72C161.777 350.443 162.358 350.304 163.041 350.304V351.808H162.657C161.025 351.808 160.209 352.694 160.209 354.464V359.232H158.753V350.464H160.209V351.888ZM170.443 347.392V359.232H168.987V347.392H170.443ZM176.749 359.376C175.928 359.376 175.181 359.19 174.509 358.816C173.848 358.443 173.325 357.915 172.941 357.232C172.568 356.539 172.381 355.739 172.381 354.832C172.381 353.936 172.573 353.147 172.957 352.464C173.352 351.771 173.885 351.243 174.557 350.88C175.229 350.507 175.981 350.32 176.813 350.32C177.645 350.32 178.397 350.507 179.069 350.88C179.741 351.243 180.269 351.766 180.653 352.448C181.048 353.131 181.245 353.926 181.245 354.832C181.245 355.739 181.042 356.539 180.637 357.232C180.242 357.915 179.704 358.443 179.021 358.816C178.338 359.19 177.581 359.376 176.749 359.376ZM176.749 358.096C177.272 358.096 177.762 357.974 178.221 357.728C178.68 357.483 179.048 357.115 179.325 356.624C179.613 356.134 179.757 355.536 179.757 354.832C179.757 354.128 179.618 353.531 179.341 353.04C179.064 352.55 178.701 352.187 178.253 351.952C177.805 351.707 177.32 351.584 176.797 351.584C176.264 351.584 175.773 351.707 175.325 351.952C174.888 352.187 174.536 352.55 174.269 353.04C174.002 353.531 173.869 354.128 173.869 354.832C173.869 355.547 173.997 356.15 174.253 356.64C174.52 357.131 174.872 357.499 175.309 357.744C175.746 357.979 176.226 358.096 176.749 358.096ZM182.615 354.832C182.615 353.926 182.797 353.136 183.159 352.464C183.522 351.782 184.023 351.254 184.663 350.88C185.314 350.507 186.055 350.32 186.887 350.32C187.965 350.32 188.85 350.582 189.543 351.104C190.247 351.627 190.711 352.352 190.935 353.28H189.367C189.218 352.747 188.925 352.326 188.487 352.016C188.061 351.707 187.527 351.552 186.887 351.552C186.055 351.552 185.383 351.84 184.871 352.416C184.359 352.982 184.103 353.787 184.103 354.832C184.103 355.888 184.359 356.704 184.871 357.28C185.383 357.856 186.055 358.144 186.887 358.144C187.527 358.144 188.061 357.995 188.487 357.696C188.914 357.398 189.207 356.971 189.367 356.416H190.935C190.701 357.312 190.231 358.032 189.527 358.576C188.823 359.11 187.943 359.376 186.887 359.376C186.055 359.376 185.314 359.19 184.663 358.816C184.023 358.443 183.522 357.915 183.159 357.232C182.797 356.55 182.615 355.75 182.615 354.832ZM192.334 354.816C192.334 353.92 192.515 353.136 192.878 352.464C193.241 351.782 193.737 351.254 194.366 350.88C195.006 350.507 195.715 350.32 196.494 350.32C197.262 350.32 197.929 350.486 198.494 350.816C199.059 351.147 199.481 351.563 199.758 352.064V350.464H201.23V359.232H199.758V357.6C199.47 358.112 199.038 358.539 198.462 358.88C197.897 359.211 197.235 359.376 196.478 359.376C195.699 359.376 194.995 359.184 194.366 358.8C193.737 358.416 193.241 357.878 192.878 357.184C192.515 356.491 192.334 355.702 192.334 354.816ZM199.758 354.832C199.758 354.171 199.625 353.595 199.358 353.104C199.091 352.614 198.729 352.24 198.27 351.984C197.822 351.718 197.326 351.584 196.782 351.584C196.238 351.584 195.742 351.712 195.294 351.968C194.846 352.224 194.489 352.598 194.222 353.088C193.955 353.579 193.822 354.155 193.822 354.816C193.822 355.488 193.955 356.075 194.222 356.576C194.489 357.067 194.846 357.446 195.294 357.712C195.742 357.968 196.238 358.096 196.782 358.096C197.326 358.096 197.822 357.968 198.27 357.712C198.729 357.446 199.091 357.067 199.358 356.576C199.625 356.075 199.758 355.494 199.758 354.832ZM205.466 351.664V356.832C205.466 357.259 205.557 357.563 205.738 357.744C205.92 357.915 206.234 358 206.682 358H207.754V359.232H206.442C205.632 359.232 205.024 359.046 204.618 358.672C204.213 358.299 204.01 357.686 204.01 356.832V351.664H202.874V350.464H204.01V348.256H205.466V350.464H207.754V351.664H205.466ZM210.271 349.04C209.993 349.04 209.759 348.944 209.567 348.752C209.375 348.56 209.279 348.326 209.279 348.048C209.279 347.771 209.375 347.536 209.567 347.344C209.759 347.152 209.993 347.056 210.271 347.056C210.537 347.056 210.761 347.152 210.943 347.344C211.135 347.536 211.231 347.771 211.231 348.048C211.231 348.326 211.135 348.56 210.943 348.752C210.761 348.944 210.537 349.04 210.271 349.04ZM210.975 350.464V359.232H209.519V350.464H210.975ZM217.28 359.376C216.459 359.376 215.712 359.19 215.04 358.816C214.379 358.443 213.856 357.915 213.472 357.232C213.099 356.539 212.912 355.739 212.912 354.832C212.912 353.936 213.104 353.147 213.488 352.464C213.883 351.771 214.416 351.243 215.088 350.88C215.76 350.507 216.512 350.32 217.344 350.32C218.176 350.32 218.928 350.507 219.6 350.88C220.272 351.243 220.8 351.766 221.184 352.448C221.579 353.131 221.776 353.926 221.776 354.832C221.776 355.739 221.573 356.539 221.168 357.232C220.773 357.915 220.235 358.443 219.552 358.816C218.869 359.19 218.112 359.376 217.28 359.376ZM217.28 358.096C217.803 358.096 218.293 357.974 218.752 357.728C219.211 357.483 219.579 357.115 219.856 356.624C220.144 356.134 220.288 355.536 220.288 354.832C220.288 354.128 220.149 353.531 219.872 353.04C219.595 352.55 219.232 352.187 218.784 351.952C218.336 351.707 217.851 351.584 217.328 351.584C216.795 351.584 216.304 351.707 215.856 351.952C215.419 352.187 215.067 352.55 214.8 353.04C214.533 353.531 214.4 354.128 214.4 354.832C214.4 355.547 214.528 356.15 214.784 356.64C215.051 357.131 215.403 357.499 215.84 357.744C216.277 357.979 216.757 358.096 217.28 358.096ZM227.962 350.304C229.029 350.304 229.893 350.63 230.554 351.28C231.216 351.92 231.546 352.848 231.546 354.064V359.232H230.106V354.272C230.106 353.398 229.888 352.731 229.45 352.272C229.013 351.803 228.416 351.568 227.658 351.568C226.89 351.568 226.277 351.808 225.818 352.288C225.37 352.768 225.146 353.467 225.146 354.384V359.232H223.69V350.464H225.146V351.712C225.434 351.264 225.824 350.918 226.314 350.672C226.816 350.427 227.365 350.304 227.962 350.304ZM241.758 351.664H239.918V359.232H238.462V351.664H237.326V350.464H238.462V349.84C238.462 348.859 238.713 348.144 239.214 347.696C239.726 347.238 240.542 347.008 241.662 347.008V348.224C241.022 348.224 240.569 348.352 240.302 348.608C240.046 348.854 239.918 349.264 239.918 349.84V350.464H241.758V351.664ZM247.28 359.376C246.459 359.376 245.712 359.19 245.04 358.816C244.379 358.443 243.856 357.915 243.472 357.232C243.099 356.539 242.912 355.739 242.912 354.832C242.912 353.936 243.104 353.147 243.488 352.464C243.883 351.771 244.416 351.243 245.088 350.88C245.76 350.507 246.512 350.32 247.344 350.32C248.176 350.32 248.928 350.507 249.6 350.88C250.272 351.243 250.8 351.766 251.184 352.448C251.579 353.131 251.776 353.926 251.776 354.832C251.776 355.739 251.573 356.539 251.168 357.232C250.773 357.915 250.235 358.443 249.552 358.816C248.869 359.19 248.112 359.376 247.28 359.376ZM247.28 358.096C247.803 358.096 248.293 357.974 248.752 357.728C249.211 357.483 249.579 357.115 249.856 356.624C250.144 356.134 250.288 355.536 250.288 354.832C250.288 354.128 250.149 353.531 249.872 353.04C249.595 352.55 249.232 352.187 248.784 351.952C248.336 351.707 247.851 351.584 247.328 351.584C246.795 351.584 246.304 351.707 245.856 351.952C245.419 352.187 245.067 352.55 244.8 353.04C244.533 353.531 244.4 354.128 244.4 354.832C244.4 355.547 244.528 356.15 244.784 356.64C245.051 357.131 245.403 357.499 245.84 357.744C246.277 357.979 246.757 358.096 247.28 358.096ZM255.146 351.888C255.402 351.387 255.765 350.998 256.234 350.72C256.714 350.443 257.296 350.304 257.978 350.304V351.808H257.594C255.962 351.808 255.146 352.694 255.146 354.464V359.232H253.69V350.464H255.146V351.888ZM265.381 352.096C265.68 351.574 266.117 351.147 266.693 350.816C267.269 350.486 267.925 350.32 268.661 350.32C269.45 350.32 270.16 350.507 270.789 350.88C271.418 351.254 271.914 351.782 272.277 352.464C272.64 353.136 272.821 353.92 272.821 354.816C272.821 355.702 272.64 356.491 272.277 357.184C271.914 357.878 271.413 358.416 270.773 358.8C270.144 359.184 269.44 359.376 268.661 359.376C267.904 359.376 267.237 359.211 266.661 358.88C266.096 358.55 265.669 358.128 265.381 357.616V359.232H263.925V347.392H265.381V352.096ZM271.333 354.816C271.333 354.155 271.2 353.579 270.933 353.088C270.666 352.598 270.304 352.224 269.845 351.968C269.397 351.712 268.901 351.584 268.357 351.584C267.824 351.584 267.328 351.718 266.869 351.984C266.421 352.24 266.058 352.619 265.781 353.12C265.514 353.611 265.381 354.182 265.381 354.832C265.381 355.494 265.514 356.075 265.781 356.576C266.058 357.067 266.421 357.446 266.869 357.712C267.328 357.968 267.824 358.096 268.357 358.096C268.901 358.096 269.397 357.968 269.845 357.712C270.304 357.446 270.666 357.067 270.933 356.576C271.2 356.075 271.333 355.488 271.333 354.816ZM282.737 354.512C282.737 354.79 282.721 355.083 282.689 355.392H275.681C275.735 356.256 276.028 356.934 276.561 357.424C277.105 357.904 277.761 358.144 278.529 358.144C279.159 358.144 279.681 358 280.097 357.712C280.524 357.414 280.823 357.019 280.993 356.528H282.561C282.327 357.371 281.857 358.059 281.153 358.592C280.449 359.115 279.575 359.376 278.529 359.376C277.697 359.376 276.951 359.19 276.289 358.816C275.639 358.443 275.127 357.915 274.753 357.232C274.38 356.539 274.193 355.739 274.193 354.832C274.193 353.926 274.375 353.131 274.737 352.448C275.1 351.766 275.607 351.243 276.257 350.88C276.919 350.507 277.676 350.32 278.529 350.32C279.361 350.32 280.097 350.502 280.737 350.864C281.377 351.227 281.868 351.728 282.209 352.368C282.561 352.998 282.737 353.712 282.737 354.512ZM281.233 354.208C281.233 353.654 281.111 353.179 280.865 352.784C280.62 352.379 280.284 352.075 279.857 351.872C279.441 351.659 278.977 351.552 278.465 351.552C277.729 351.552 277.1 351.787 276.577 352.256C276.065 352.726 275.772 353.376 275.697 354.208H281.233ZM287.763 359.376C287.091 359.376 286.489 359.264 285.955 359.04C285.422 358.806 285.001 358.486 284.691 358.08C284.382 357.664 284.211 357.19 284.179 356.656H285.683C285.726 357.094 285.929 357.451 286.291 357.728C286.665 358.006 287.15 358.144 287.747 358.144C288.302 358.144 288.739 358.022 289.059 357.776C289.379 357.531 289.539 357.222 289.539 356.848C289.539 356.464 289.369 356.182 289.027 356C288.686 355.808 288.158 355.622 287.443 355.44C286.793 355.27 286.259 355.099 285.843 354.928C285.438 354.747 285.086 354.486 284.787 354.144C284.499 353.792 284.355 353.334 284.355 352.768C284.355 352.32 284.489 351.91 284.755 351.536C285.022 351.163 285.401 350.87 285.891 350.656C286.382 350.432 286.942 350.32 287.571 350.32C288.542 350.32 289.326 350.566 289.923 351.056C290.521 351.547 290.841 352.219 290.883 353.072H289.427C289.395 352.614 289.209 352.246 288.867 351.968C288.537 351.691 288.089 351.552 287.523 351.552C287.001 351.552 286.585 351.664 286.275 351.888C285.966 352.112 285.811 352.406 285.811 352.768C285.811 353.056 285.902 353.296 286.083 353.488C286.275 353.67 286.51 353.819 286.787 353.936C287.075 354.043 287.47 354.166 287.971 354.304C288.601 354.475 289.113 354.646 289.507 354.816C289.902 354.976 290.238 355.222 290.515 355.552C290.803 355.883 290.953 356.315 290.963 356.848C290.963 357.328 290.83 357.76 290.563 358.144C290.297 358.528 289.918 358.832 289.427 359.056C288.947 359.27 288.393 359.376 287.763 359.376ZM294.795 351.664V356.832C294.795 357.259 294.885 357.563 295.067 357.744C295.248 357.915 295.563 358 296.011 358H297.083V359.232H295.771C294.96 359.232 294.352 359.046 293.947 358.672C293.541 358.299 293.339 357.686 293.339 356.832V351.664H292.203V350.464H293.339V348.256H294.795V350.464H297.083V351.664H294.795ZM72.2711 385.376C71.5991 385.376 70.9964 385.264 70.4631 385.04C69.9297 384.806 69.5084 384.486 69.1991 384.08C68.8897 383.664 68.7191 383.19 68.6871 382.656H70.1911C70.2337 383.094 70.4364 383.451 70.7991 383.728C71.1724 384.006 71.6577 384.144 72.2551 384.144C72.8097 384.144 73.2471 384.022 73.5671 383.776C73.8871 383.531 74.0471 383.222 74.0471 382.848C74.0471 382.464 73.8764 382.182 73.5351 382C73.1937 381.808 72.6657 381.622 71.9511 381.44C71.3004 381.27 70.7671 381.099 70.3511 380.928C69.9457 380.747 69.5937 380.486 69.2951 380.144C69.0071 379.792 68.8631 379.334 68.8631 378.768C68.8631 378.32 68.9964 377.91 69.2631 377.536C69.5297 377.163 69.9084 376.87 70.3991 376.656C70.8897 376.432 71.4497 376.32 72.0791 376.32C73.0497 376.32 73.8337 376.566 74.4311 377.056C75.0284 377.547 75.3484 378.219 75.3911 379.072H73.9351C73.9031 378.614 73.7164 378.246 73.3751 377.968C73.0444 377.691 72.5964 377.552 72.0311 377.552C71.5084 377.552 71.0924 377.664 70.7831 377.888C70.4737 378.112 70.3191 378.406 70.3191 378.768C70.3191 379.056 70.4097 379.296 70.5911 379.488C70.7831 379.67 71.0177 379.819 71.2951 379.936C71.5831 380.043 71.9777 380.166 72.4791 380.304C73.1084 380.475 73.6204 380.646 74.0151 380.816C74.4097 380.976 74.7457 381.222 75.0231 381.552C75.3111 381.883 75.4604 382.315 75.4711 382.848C75.4711 383.328 75.3377 383.76 75.0711 384.144C74.8044 384.528 74.4257 384.832 73.9351 385.056C73.4551 385.27 72.9004 385.376 72.2711 385.376ZM81.8784 376.304C82.5398 376.304 83.1371 376.448 83.6704 376.736C84.2038 377.014 84.6198 377.435 84.9184 378C85.2278 378.566 85.3824 379.254 85.3824 380.064V385.232H83.9424V380.272C83.9424 379.398 83.7238 378.731 83.2864 378.272C82.8491 377.803 82.2518 377.568 81.4944 377.568C80.7264 377.568 80.1131 377.808 79.6544 378.288C79.2064 378.768 78.9824 379.467 78.9824 380.384V385.232H77.5264V373.392H78.9824V377.712C79.2704 377.264 79.6651 376.918 80.1664 376.672C80.6784 376.427 81.2491 376.304 81.8784 376.304ZM88.5128 375.04C88.2355 375.04 88.0008 374.944 87.8088 374.752C87.6168 374.56 87.5208 374.326 87.5208 374.048C87.5208 373.771 87.6168 373.536 87.8088 373.344C88.0008 373.152 88.2355 373.056 88.5128 373.056C88.7795 373.056 89.0035 373.152 89.1848 373.344C89.3768 373.536 89.4728 373.771 89.4728 374.048C89.4728 374.326 89.3768 374.56 89.1848 374.752C89.0035 374.944 88.7795 375.04 88.5128 375.04ZM89.2168 376.464V385.232H87.7608V376.464H89.2168ZM93.1543 378.08C93.4423 377.579 93.869 377.163 94.4343 376.832C95.0103 376.491 95.677 376.32 96.4343 376.32C97.213 376.32 97.917 376.507 98.5463 376.88C99.1863 377.254 99.6876 377.782 100.05 378.464C100.413 379.136 100.594 379.92 100.594 380.816C100.594 381.702 100.413 382.491 100.05 383.184C99.6876 383.878 99.1863 384.416 98.5463 384.8C97.917 385.184 97.213 385.376 96.4343 385.376C95.6876 385.376 95.0263 385.211 94.4503 384.88C93.885 384.539 93.453 384.118 93.1543 383.616V389.392H91.6983V376.464H93.1543V378.08ZM99.1063 380.816C99.1063 380.155 98.973 379.579 98.7063 379.088C98.4396 378.598 98.077 378.224 97.6183 377.968C97.1703 377.712 96.6743 377.584 96.1303 377.584C95.597 377.584 95.101 377.718 94.6423 377.984C94.1943 378.24 93.8316 378.619 93.5543 379.12C93.2876 379.611 93.1543 380.182 93.1543 380.832C93.1543 381.494 93.2876 382.075 93.5543 382.576C93.8316 383.067 94.1943 383.446 94.6423 383.712C95.101 383.968 95.597 384.096 96.1303 384.096C96.6743 384.096 97.1703 383.968 97.6183 383.712C98.077 383.446 98.4396 383.067 98.7063 382.576C98.973 382.075 99.1063 381.488 99.1063 380.816ZM103.967 378.08C104.255 377.579 104.681 377.163 105.247 376.832C105.823 376.491 106.489 376.32 107.247 376.32C108.025 376.32 108.729 376.507 109.359 376.88C109.999 377.254 110.5 377.782 110.863 378.464C111.225 379.136 111.407 379.92 111.407 380.816C111.407 381.702 111.225 382.491 110.863 383.184C110.5 383.878 109.999 384.416 109.359 384.8C108.729 385.184 108.025 385.376 107.247 385.376C106.5 385.376 105.839 385.211 105.263 384.88C104.697 384.539 104.265 384.118 103.967 383.616V389.392H102.511V376.464H103.967V378.08ZM109.919 380.816C109.919 380.155 109.785 379.579 109.519 379.088C109.252 378.598 108.889 378.224 108.431 377.968C107.983 377.712 107.487 377.584 106.943 377.584C106.409 377.584 105.913 377.718 105.455 377.984C105.007 378.24 104.644 378.619 104.367 379.12C104.1 379.611 103.967 380.182 103.967 380.832C103.967 381.494 104.1 382.075 104.367 382.576C104.644 383.067 105.007 383.446 105.455 383.712C105.913 383.968 106.409 384.096 106.943 384.096C107.487 384.096 107.983 383.968 108.431 383.712C108.889 383.446 109.252 383.067 109.519 382.576C109.785 382.075 109.919 381.488 109.919 380.816ZM114.075 375.04C113.798 375.04 113.563 374.944 113.371 374.752C113.179 374.56 113.083 374.326 113.083 374.048C113.083 373.771 113.179 373.536 113.371 373.344C113.563 373.152 113.798 373.056 114.075 373.056C114.342 373.056 114.566 373.152 114.747 373.344C114.939 373.536 115.035 373.771 115.035 374.048C115.035 374.326 114.939 374.56 114.747 374.752C114.566 374.944 114.342 375.04 114.075 375.04ZM114.779 376.464V385.232H113.323V376.464H114.779ZM121.533 376.304C122.599 376.304 123.463 376.63 124.125 377.28C124.786 377.92 125.117 378.848 125.117 380.064V385.232H123.677V380.272C123.677 379.398 123.458 378.731 123.021 378.272C122.583 377.803 121.986 377.568 121.229 377.568C120.461 377.568 119.847 377.808 119.389 378.288C118.941 378.768 118.717 379.467 118.717 380.384V385.232H117.261V376.464H118.717V377.712C119.005 377.264 119.394 376.918 119.885 376.672C120.386 376.427 120.935 376.304 121.533 376.304ZM131.111 376.32C131.869 376.32 132.53 376.486 133.095 376.816C133.671 377.147 134.098 377.563 134.375 378.064V376.464H135.847V385.424C135.847 386.224 135.677 386.934 135.335 387.552C134.994 388.182 134.503 388.672 133.863 389.024C133.234 389.376 132.498 389.552 131.655 389.552C130.503 389.552 129.543 389.28 128.775 388.736C128.007 388.192 127.554 387.451 127.415 386.512H128.855C129.015 387.046 129.346 387.472 129.847 387.792C130.349 388.123 130.951 388.288 131.655 388.288C132.455 388.288 133.106 388.038 133.607 387.536C134.119 387.035 134.375 386.331 134.375 385.424V383.584C134.087 384.096 133.661 384.523 133.095 384.864C132.53 385.206 131.869 385.376 131.111 385.376C130.333 385.376 129.623 385.184 128.983 384.8C128.354 384.416 127.858 383.878 127.495 383.184C127.133 382.491 126.951 381.702 126.951 380.816C126.951 379.92 127.133 379.136 127.495 378.464C127.858 377.782 128.354 377.254 128.983 376.88C129.623 376.507 130.333 376.32 131.111 376.32ZM134.375 380.832C134.375 380.171 134.242 379.595 133.975 379.104C133.709 378.614 133.346 378.24 132.887 377.984C132.439 377.718 131.943 377.584 131.399 377.584C130.855 377.584 130.359 377.712 129.911 377.968C129.463 378.224 129.106 378.598 128.839 379.088C128.573 379.579 128.439 380.155 128.439 380.816C128.439 381.488 128.573 382.075 128.839 382.576C129.106 383.067 129.463 383.446 129.911 383.712C130.359 383.968 130.855 384.096 131.399 384.096C131.943 384.096 132.439 383.968 132.887 383.712C133.346 383.446 133.709 383.067 133.975 382.576C134.242 382.075 134.375 381.494 134.375 380.832ZM150.573 380.512C150.573 380.79 150.557 381.083 150.525 381.392H143.517C143.571 382.256 143.864 382.934 144.397 383.424C144.941 383.904 145.597 384.144 146.365 384.144C146.995 384.144 147.517 384 147.933 383.712C148.36 383.414 148.659 383.019 148.829 382.528H150.397C150.163 383.371 149.693 384.059 148.989 384.592C148.285 385.115 147.411 385.376 146.365 385.376C145.533 385.376 144.787 385.19 144.125 384.816C143.475 384.443 142.963 383.915 142.589 383.232C142.216 382.539 142.029 381.739 142.029 380.832C142.029 379.926 142.211 379.131 142.573 378.448C142.936 377.766 143.443 377.243 144.093 376.88C144.755 376.507 145.512 376.32 146.365 376.32C147.197 376.32 147.933 376.502 148.573 376.864C149.213 377.227 149.704 377.728 150.045 378.368C150.397 378.998 150.573 379.712 150.573 380.512ZM149.069 380.208C149.069 379.654 148.947 379.179 148.701 378.784C148.456 378.379 148.12 378.075 147.693 377.872C147.277 377.659 146.813 377.552 146.301 377.552C145.565 377.552 144.936 377.787 144.413 378.256C143.901 378.726 143.608 379.376 143.533 380.208H149.069ZM157.071 385.232L154.991 381.968L152.991 385.232H151.471L154.303 380.88L151.471 376.464H153.119L155.199 379.712L157.183 376.464H158.703L155.887 380.8L158.719 385.232H157.071ZM161.607 378.08C161.895 377.579 162.322 377.163 162.887 376.832C163.463 376.491 164.13 376.32 164.887 376.32C165.666 376.32 166.37 376.507 166.999 376.88C167.639 377.254 168.141 377.782 168.503 378.464C168.866 379.136 169.047 379.92 169.047 380.816C169.047 381.702 168.866 382.491 168.503 383.184C168.141 383.878 167.639 384.416 166.999 384.8C166.37 385.184 165.666 385.376 164.887 385.376C164.141 385.376 163.479 385.211 162.903 384.88C162.338 384.539 161.906 384.118 161.607 383.616V389.392H160.151V376.464H161.607V378.08ZM167.559 380.816C167.559 380.155 167.426 379.579 167.159 379.088C166.893 378.598 166.53 378.224 166.071 377.968C165.623 377.712 165.127 377.584 164.583 377.584C164.05 377.584 163.554 377.718 163.095 377.984C162.647 378.24 162.285 378.619 162.007 379.12C161.741 379.611 161.607 380.182 161.607 380.832C161.607 381.494 161.741 382.075 162.007 382.576C162.285 383.067 162.647 383.446 163.095 383.712C163.554 383.968 164.05 384.096 164.583 384.096C165.127 384.096 165.623 383.968 166.071 383.712C166.53 383.446 166.893 383.067 167.159 382.576C167.426 382.075 167.559 381.488 167.559 380.816ZM178.964 380.512C178.964 380.79 178.948 381.083 178.916 381.392H171.908C171.961 382.256 172.255 382.934 172.788 383.424C173.332 383.904 173.988 384.144 174.756 384.144C175.385 384.144 175.908 384 176.324 383.712C176.751 383.414 177.049 383.019 177.22 382.528H178.788C178.553 383.371 178.084 384.059 177.38 384.592C176.676 385.115 175.801 385.376 174.756 385.376C173.924 385.376 173.177 385.19 172.516 384.816C171.865 384.443 171.353 383.915 170.98 383.232C170.607 382.539 170.42 381.739 170.42 380.832C170.42 379.926 170.601 379.131 170.964 378.448C171.327 377.766 171.833 377.243 172.484 376.88C173.145 376.507 173.903 376.32 174.756 376.32C175.588 376.32 176.324 376.502 176.964 376.864C177.604 377.227 178.095 377.728 178.436 378.368C178.788 378.998 178.964 379.712 178.964 380.512ZM177.46 380.208C177.46 379.654 177.337 379.179 177.092 378.784C176.847 378.379 176.511 378.075 176.084 377.872C175.668 377.659 175.204 377.552 174.692 377.552C173.956 377.552 173.327 377.787 172.804 378.256C172.292 378.726 171.999 379.376 171.924 380.208H177.46ZM182.342 377.888C182.598 377.387 182.96 376.998 183.43 376.72C183.91 376.443 184.491 376.304 185.174 376.304V377.808H184.79C183.158 377.808 182.342 378.694 182.342 380.464V385.232H180.886V376.464H182.342V377.888ZM187.607 375.04C187.329 375.04 187.095 374.944 186.903 374.752C186.711 374.56 186.615 374.326 186.615 374.048C186.615 373.771 186.711 373.536 186.903 373.344C187.095 373.152 187.329 373.056 187.607 373.056C187.873 373.056 188.097 373.152 188.279 373.344C188.471 373.536 188.567 373.771 188.567 374.048C188.567 374.326 188.471 374.56 188.279 374.752C188.097 374.944 187.873 375.04 187.607 375.04ZM188.311 376.464V385.232H186.855V376.464H188.311ZM198.792 380.512C198.792 380.79 198.776 381.083 198.744 381.392H191.736C191.789 382.256 192.083 382.934 192.616 383.424C193.16 383.904 193.816 384.144 194.584 384.144C195.213 384.144 195.736 384 196.152 383.712C196.579 383.414 196.877 383.019 197.048 382.528H198.616C198.381 383.371 197.912 384.059 197.208 384.592C196.504 385.115 195.629 385.376 194.584 385.376C193.752 385.376 193.005 385.19 192.344 384.816C191.693 384.443 191.181 383.915 190.808 383.232C190.435 382.539 190.248 381.739 190.248 380.832C190.248 379.926 190.429 379.131 190.792 378.448C191.155 377.766 191.661 377.243 192.312 376.88C192.973 376.507 193.731 376.32 194.584 376.32C195.416 376.32 196.152 376.502 196.792 376.864C197.432 377.227 197.923 377.728 198.264 378.368C198.616 378.998 198.792 379.712 198.792 380.512ZM197.288 380.208C197.288 379.654 197.165 379.179 196.92 378.784C196.675 378.379 196.339 378.075 195.912 377.872C195.496 377.659 195.032 377.552 194.52 377.552C193.784 377.552 193.155 377.787 192.632 378.256C192.12 378.726 191.827 379.376 191.752 380.208H197.288ZM204.986 376.304C206.053 376.304 206.917 376.63 207.578 377.28C208.239 377.92 208.57 378.848 208.57 380.064V385.232H207.13V380.272C207.13 379.398 206.911 378.731 206.474 378.272C206.037 377.803 205.439 377.568 204.682 377.568C203.914 377.568 203.301 377.808 202.842 378.288C202.394 378.768 202.17 379.467 202.17 380.384V385.232H200.714V376.464H202.17V377.712C202.458 377.264 202.847 376.918 203.338 376.672C203.839 376.427 204.389 376.304 204.986 376.304ZM210.404 380.832C210.404 379.926 210.586 379.136 210.948 378.464C211.311 377.782 211.812 377.254 212.452 376.88C213.103 376.507 213.844 376.32 214.676 376.32C215.754 376.32 216.639 376.582 217.332 377.104C218.036 377.627 218.5 378.352 218.724 379.28H217.156C217.007 378.747 216.714 378.326 216.276 378.016C215.85 377.707 215.316 377.552 214.676 377.552C213.844 377.552 213.172 377.84 212.66 378.416C212.148 378.982 211.892 379.787 211.892 380.832C211.892 381.888 212.148 382.704 212.66 383.28C213.172 383.856 213.844 384.144 214.676 384.144C215.316 384.144 215.85 383.995 216.276 383.696C216.703 383.398 216.996 382.971 217.156 382.416H218.724C218.49 383.312 218.02 384.032 217.316 384.576C216.612 385.11 215.732 385.376 214.676 385.376C213.844 385.376 213.103 385.19 212.452 384.816C211.812 384.443 211.311 383.915 210.948 383.232C210.586 382.55 210.404 381.75 210.404 380.832ZM228.667 380.512C228.667 380.79 228.651 381.083 228.619 381.392H221.611C221.664 382.256 221.958 382.934 222.491 383.424C223.035 383.904 223.691 384.144 224.459 384.144C225.088 384.144 225.611 384 226.027 383.712C226.454 383.414 226.752 383.019 226.923 382.528H228.491C228.256 383.371 227.787 384.059 227.083 384.592C226.379 385.115 225.504 385.376 224.459 385.376C223.627 385.376 222.88 385.19 222.219 384.816C221.568 384.443 221.056 383.915 220.683 383.232C220.31 382.539 220.123 381.739 220.123 380.832C220.123 379.926 220.304 379.131 220.667 378.448C221.03 377.766 221.536 377.243 222.187 376.88C222.848 376.507 223.606 376.32 224.459 376.32C225.291 376.32 226.027 376.502 226.667 376.864C227.307 377.227 227.798 377.728 228.139 378.368C228.491 378.998 228.667 379.712 228.667 380.512ZM227.163 380.208C227.163 379.654 227.04 379.179 226.795 378.784C226.55 378.379 226.214 378.075 225.787 377.872C225.371 377.659 224.907 377.552 224.395 377.552C223.659 377.552 223.03 377.787 222.507 378.256C221.995 378.726 221.702 379.376 221.627 380.208H227.163Z" fill="#777777"/>
</svg>
