<svg width="40" height="40" viewBox="0 0 40 40" fill="none" xmlns="http://www.w3.org/2000/svg">
<circle cx="20" cy="20" r="20" fill="#6C87CF"/>
<path d="M26.8167 26.9549L24.2386 24.4344L24.1782 24.3425C24.0658 24.2306 23.9122 24.1676 23.7519 24.1676C23.5915 24.1676 23.4379 24.2306 23.3256 24.3425C21.1346 26.3525 17.7586 26.4618 15.4365 24.5978C13.1144 22.7338 12.5668 19.475 14.1568 16.9826C15.7468 14.4902 18.9811 13.5376 21.7146 14.7566C24.4482 15.9756 25.8329 18.9878 24.9503 21.7957C24.8867 21.9985 24.9387 22.2191 25.0866 22.3744C25.2345 22.5296 25.4558 22.5959 25.6673 22.5483C25.8787 22.5007 26.0482 22.3464 26.1117 22.1436C27.1668 18.8115 25.5733 15.2257 22.3621 13.7058C19.1509 12.1859 15.2856 13.1881 13.2668 16.0641C11.248 18.94 11.6814 22.8266 14.2867 25.2096C16.892 27.5926 20.8873 27.7569 23.6881 25.5962L25.9707 27.8279C26.2065 28.0574 26.5876 28.0574 26.8234 27.8279C27.0589 27.5952 27.0589 27.2204 26.8234 26.9877L26.8167 26.9549Z" fill="#F8F9FB"/>
</svg>
